<svg width="1204" height="333" viewBox="0 0 1204 333" fill="none" xmlns="http://www.w3.org/2000/svg">
<g clip-path="url(#clip0_36_2)">
<g clip-path="url(#clip1_36_2)">
<path d="M265.016 201.36C262.955 193.676 260.894 185.993 258.832 178.31C256.663 170.22 257.953 161.67 262.451 154.439C271.394 140.061 276.839 127.24 280.24 117.63C285.256 103.46 289.643 90.6256 288.074 73.5801C287.002 61.8859 285.587 46.5099 272.417 34.9329C267.798 30.8726 262.668 28.1011 257.569 26.2287C251.955 24.167 245.962 23.1215 239.919 22.9773C232.768 22.8038 225.289 23.3581 217.584 24.6086C213.943 25.199 210.254 25.9471 206.523 26.8461C197.827 28.9393 188.903 31.8572 179.891 35.5593C147.662 48.7969 114.226 72.0524 85.4226 103.395C36.771 156.343 15.0452 217.461 25.5286 259.648C27.191 266.336 31.3506 272.316 37.459 276.248C40.0663 277.926 43.0777 279.285 46.5077 279.977C64.113 283.526 81.3144 267.136 89.0778 259.741C117.333 232.815 156.155 148.563 182.087 87.1084C184.285 81.9012 192.455 82.3834 193.912 87.8068L235.336 242.177C238.399 253.585 234.376 265.637 224.838 273.449C154.781 330.825 73.2695 350.376 29.1178 316.008C-22.8194 275.585 -3.40968 175.881 72.464 93.3092C148.34 10.7379 251.95 -23.4322 303.885 16.9928C348.7 51.8748 340.391 130.904 288.51 204.974C282.348 213.771 267.741 211.526 265.016 201.367V201.36Z" fill="white"/>
</g>
<path d="M614.8 121.8C614.8 166.25 580.15 201.95 535.7 201.95H476.9V287H441.9V42H535.7C580.15 42 614.8 77.7 614.8 121.8ZM533.25 169.4C559.85 169.4 580.15 148.4 580.15 121.8C580.15 95.55 559.85 74.55 533.25 74.55H476.9V169.4H533.25ZM824.004 199.5C824.004 252 784.104 290.85 729.854 290.85C675.604 290.85 635.704 252 635.704 199.5C635.704 147.35 675.604 108.15 729.854 108.15C784.104 108.15 824.004 147.35 824.004 199.5ZM790.754 199.5C790.754 165.2 764.854 138.6 729.854 138.6C694.854 138.6 668.954 165.2 668.954 199.5C668.954 233.8 694.854 260.4 729.854 260.4C764.854 260.4 790.754 233.8 790.754 199.5ZM846.935 199.5C846.935 147.35 883.335 108.15 932.685 108.15C962.785 108.15 986.935 121.45 1001.98 142.8V42H1035.23V288.75H1001.98V255.85C986.935 277.55 962.435 290.85 933.035 290.85C882.285 290.85 846.935 251.65 846.935 199.5ZM941.085 138.25C905.735 138.25 880.185 165.2 880.185 199.5C880.185 233.8 905.735 260.75 941.085 260.75C976.785 260.75 1001.98 233.8 1001.98 199.5C1001.98 165.2 976.785 138.25 941.085 138.25ZM1113.54 157.85C1113.54 168.35 1120.54 175 1147.49 184.1C1186.34 198.45 1203.49 211.05 1203.49 235.9C1203.49 267.05 1177.94 291.55 1138.04 291.55C1101.64 291.2 1077.84 273.35 1069.09 245.35L1093.94 233.1C1101.29 252 1117.74 261.8 1138.39 261.8C1155.89 261.8 1170.59 253.4 1170.59 237.3C1170.59 225.4 1157.29 219.45 1136.29 211.75C1100.94 198.1 1080.64 183.75 1080.64 157.5C1080.64 127.4 1106.54 108.15 1139.44 108.15C1167.44 108.15 1189.84 121.8 1200.69 145.25L1175.14 157.5C1167.79 144.55 1154.14 137.9 1140.14 137.9C1125.44 137.9 1113.54 145.25 1113.54 157.85Z" fill="white"/>
</g>
<defs>
<clipPath id="clip0_36_2">
<rect width="1204" height="333" fill="white"/>
</clipPath>
<clipPath id="clip1_36_2">
<rect width="333" height="333" fill="white"/>
</clipPath>
</defs>
</svg>
