<svg width="1440" height="800" viewBox="0 0 1440 800" fill="none" xmlns="http://www.w3.org/2000/svg">
<g clip-path="url(#clip0_93_769)">
<path d="M0.599976 43.3C0.599976 43.3 11.4 35.2 14.5 22C17.6 8.8 29.1 0 29.1 0" stroke="white" stroke-width="2" stroke-miterlimit="10"/>
<path d="M0.599976 79.3C0.599976 79.3 37.6 67.9 47.4 39.2C56.8 11.3 94.8 0 94.8 0" stroke="white" stroke-width="2" stroke-miterlimit="10"/>
<path d="M0.599976 115.3C0.599976 115.3 63.8 100.6 80.2 56.5C96 14 160.5 0 160.5 0" stroke="white" stroke-width="2" stroke-miterlimit="10"/>
<path d="M0.599976 151.4C0.599976 151.4 89.9 133.3 113.1 73.8C135.2 16.6 226.1 0 226.1 0" stroke="white" stroke-width="2" stroke-miterlimit="10"/>
<path d="M0.599976 187.4C0.599976 187.4 116.1 166 145.9 91.1C174.4 19.3 291.8 0 291.8 0" stroke="white" stroke-width="2" stroke-miterlimit="10"/>
<path d="M0.599976 223.4C0.599976 223.4 142.3 198.7 178.8 108.3C213.6 22 357.5 0 357.5 0" stroke="white" stroke-width="2" stroke-miterlimit="10"/>
<path d="M0.599976 259.5C0.599976 259.5 168.4 231.4 211.6 125.7C252.8 24.6 423.2 0 423.2 0" stroke="white" stroke-width="2" stroke-miterlimit="10"/>
<path d="M0.599976 295.5C0.599976 295.5 194.6 264.1 244.5 142.9C292 27.3 488.9 0 488.9 0" stroke="white" stroke-width="2" stroke-miterlimit="10"/>
<path d="M0.599976 331.5C0.599976 331.5 220.8 296.8 277.4 160.2C331.2 30 554.5 0 554.5 0" stroke="white" stroke-width="2" stroke-miterlimit="10"/>
<path d="M0.599976 367.6C0.599976 367.6 246.9 329.6 310.2 177.5C370.5 32.6 620.2 0 620.2 0" stroke="white" stroke-width="2" stroke-miterlimit="10"/>
<path d="M0.599976 403.6C0.599976 403.6 273.1 362.2 343.1 194.8C409.7 35.3 685.9 0 685.9 0" stroke="white" stroke-width="2" stroke-miterlimit="10"/>
<path d="M0.599976 439.6C0.599976 439.6 299.3 394.9 375.9 212C448.9 38 751.6 0 751.6 0" stroke="white" stroke-width="2" stroke-miterlimit="10"/>
<path d="M0.599976 475.7C0.599976 475.7 325.4 427.7 408.8 229.4C488.1 40.6 817.2 0 817.2 0" stroke="white" stroke-width="2" stroke-miterlimit="10"/>
<path d="M0.599976 511.7C0.599976 511.7 351.6 460.4 441.6 246.7C527.3 43.3 882.9 0 882.9 0" stroke="white" stroke-width="2" stroke-miterlimit="10"/>
<path d="M0.599976 547.8C0.599976 547.8 377.8 493.1 474.5 264C566.5 46 948.6 0 948.6 0" stroke="white" stroke-width="2" stroke-miterlimit="10"/>
<path d="M0.599976 583.8C0.599976 583.8 403.9 525.8 507.3 281.3C605.7 48.6 1014.3 0 1014.3 0" stroke="white" stroke-width="2" stroke-miterlimit="10"/>
<path d="M0.599976 619.8C0.599976 619.8 430.1 558.5 540.2 298.5C644.9 51.3 1080 0 1080 0" stroke="white" stroke-width="2" stroke-miterlimit="10"/>
<path d="M0.599976 655.9C0.599976 655.9 456.3 591.2 573.1 315.9C684.1 54 1145.6 0 1145.6 0" stroke="white" stroke-width="2" stroke-miterlimit="10"/>
<path d="M0.599976 691.9C0.599976 691.9 482.4 623.9 605.9 333.1C723.3 56.6 1211.3 0 1211.3 0" stroke="white" stroke-width="2" stroke-miterlimit="10"/>
<path d="M0.599976 727.9C0.599976 727.9 508.6 656.6 638.8 350.4C762.5 59.3 1277 0 1277 0" stroke="white" stroke-width="2" stroke-miterlimit="10"/>
<path d="M0.599976 764C0.599976 764 534.8 689.4 671.6 367.7C801.7 62 1342.7 0 1342.7 0" stroke="white" stroke-width="2" stroke-miterlimit="10"/>
<path d="M0.599976 800C0.599976 800 560.9 722 704.5 385C840.9 64.6 1408.3 0 1408.3 0" stroke="white" stroke-width="2" stroke-miterlimit="10"/>
<path d="M1436.9 756.7C1436.9 756.7 1426.1 764.8 1423 778C1419.9 791.3 1408.4 799.9 1408.4 799.9" stroke="white" stroke-width="2" stroke-miterlimit="10"/>
<path d="M1436.9 720.7C1436.9 720.7 1399.9 732.1 1390.1 760.8C1380.7 788.7 1342.7 800 1342.7 800" stroke="white" stroke-width="2" stroke-miterlimit="10"/>
<path d="M1436.9 684.7C1436.9 684.7 1373.7 699.4 1357.3 743.5C1341.4 786 1277 800 1277 800" stroke="white" stroke-width="2" stroke-miterlimit="10"/>
<path d="M1436.9 648.6C1436.9 648.6 1347.6 666.7 1324.4 726.2C1302.3 783.3 1211.3 800 1211.3 800" stroke="white" stroke-width="2" stroke-miterlimit="10"/>
<path d="M1436.9 612.6C1436.9 612.6 1321.4 634 1291.6 708.9C1263.1 780.7 1145.7 800 1145.7 800" stroke="white" stroke-width="2" stroke-miterlimit="10"/>
<path d="M1436.9 576.5C1436.9 576.5 1295.2 601.2 1258.7 691.6C1223.8 778 1080 800 1080 800" stroke="white" stroke-width="2" stroke-miterlimit="10"/>
<path d="M1436.9 540.5C1436.9 540.5 1269.1 568.6 1225.9 674.3C1184.7 775.3 1014.4 800 1014.4 800" stroke="white" stroke-width="2" stroke-miterlimit="10"/>
<path d="M1436.9 504.5C1436.9 504.5 1242.9 535.9 1193 657.1C1145.4 772.7 948.6 800 948.6 800" stroke="white" stroke-width="2" stroke-miterlimit="10"/>
<path d="M1436.9 468.4C1436.9 468.4 1216.7 503.1 1160.1 639.7C1106.2 770 882.9 800 882.9 800" stroke="white" stroke-width="2" stroke-miterlimit="10"/>
<path d="M1436.9 432.4C1436.9 432.4 1190.6 470.4 1127.3 622.5C1067 767.3 817.2 800 817.2 800" stroke="white" stroke-width="2" stroke-miterlimit="10"/>
<path d="M1436.9 396.4C1436.9 396.4 1164.4 437.8 1094.4 605.2C1027.8 764.7 751.6 800 751.6 800" stroke="white" stroke-width="2" stroke-miterlimit="10"/>
<path d="M1436.9 360.3C1436.9 360.3 1138.2 405 1061.6 587.9C988.6 762 685.9 800 685.9 800" stroke="white" stroke-width="2" stroke-miterlimit="10"/>
<path d="M1436.9 324.3C1436.9 324.3 1112.1 372.3 1028.7 570.6C949.4 759.4 620.2 800 620.2 800" stroke="white" stroke-width="2" stroke-miterlimit="10"/>
<path d="M1436.9 288.3C1436.9 288.3 1085.9 339.6 995.9 553.3C910.2 756.7 554.5 800 554.5 800" stroke="white" stroke-width="2" stroke-miterlimit="10"/>
<path d="M1436.9 252.2C1436.9 252.2 1059.7 306.9 963 536C871 754 488.9 800 488.9 800" stroke="white" stroke-width="2" stroke-miterlimit="10"/>
<path d="M1436.9 216.2C1436.9 216.2 1033.6 274.2 930.2 518.7C831.8 751.4 423.2 800 423.2 800" stroke="white" stroke-width="2" stroke-miterlimit="10"/>
<path d="M1436.9 180.2C1436.9 180.2 1007.4 241.5 897.3 501.5C792.6 748.7 357.5 800 357.5 800" stroke="white" stroke-width="2" stroke-miterlimit="10"/>
<path d="M1436.9 144.1C1436.9 144.1 981.2 208.8 864.4 484.1C753.4 746 291.8 800 291.8 800" stroke="white" stroke-width="2" stroke-miterlimit="10"/>
<path d="M1436.9 108.1C1436.9 108.1 955.1 176.1 831.6 466.9C714.2 743.4 226.1 800 226.1 800" stroke="white" stroke-width="2" stroke-miterlimit="10"/>
<path d="M1436.9 72.1001C1436.9 72.1001 928.9 143.4 798.7 449.6C675 740.7 160.5 800 160.5 800" stroke="white" stroke-width="2" stroke-miterlimit="10"/>
<path d="M1436.9 36C1436.9 36 902.7 110.6 765.9 432.3C635.7 738 94.8 800 94.8 800" stroke="white" stroke-width="2" stroke-miterlimit="10"/>
<path d="M1436.9 0C1436.9 0 876.6 78 733 415C596.5 735.4 29.1001 800 29.1001 800" stroke="white" stroke-width="2" stroke-miterlimit="10"/>
</g>
<defs>
<clipPath id="clip0_93_769">
<rect width="1440.6" height="802" fill="white" transform="translate(0 -1)"/>
</clipPath>
</defs>
</svg>
